# MagicaVoxel @ Ephtracy

# material
mtllib machinist1_Walk1-00.mtl
usemtl palette

# normals
vn -1 0 0
vn 1 0 0
vn 0 0 1
vn 0 0 -1
vn 0 -1 0
vn 0 1 0

# texcoords
vt 0.0644531 0.5
vt 0.158203 0.5
vt 0.236328 0.5
vt 0.314453 0.5
vt 0.736328 0.5
vt 0.744141 0.5
vt 0.982422 0.5
vt 0.986328 0.5
vt 0.990234 0.5

# verts
v -4 9 3
v -4 9 1
v -4 9 -0
v -4 9 -2
v -4 10 3
v -4 10 1
v -4 10 -0
v -4 10 -2
v -3 10 -1
v -3 10 -2
v -3 11 -1
v -3 11 -2
v -3 13 -1
v -3 13 -2
v -3 15 -1
v -3 15 -2
v -2 0 -1
v -2 0 -3
v -2 1 -1
v -2 1 -2
v -2 1 -3
v -2 2 -1
v -2 2 -2
v -2 2 -3
v -2 6 -0
v -2 6 -1
v -2 6 -3
v -2 10 -1
v -2 10 -2
v -2 11 -0
v -2 11 -1
v -2 11 -2
v -2 11 -3
v -2 12 1
v -2 12 -2
v -2 12 -3
v -2 13 1
v -2 13 -0
v -2 13 -1
v -2 13 -2
v -2 13 -3
v -2 14 1
v -2 14 -0
v -2 15 3
v -2 15 1
v -2 15 -0
v -2 15 -1
v -2 15 -2
v -2 15 -3
v -2 16 3
v -2 16 1
v -2 16 -3
v -2 17 1
v -2 17 -3
v -1 11 -0
v -1 11 -2
v -1 12 -0
v -1 12 -2
v 1 4 4
v 1 4 3
v 1 4 2
v 1 4 -2
v 1 5 3
v 1 5 2
v 1 6 4
v 1 6 3
v 1 6 2
v 1 6 -0
v 1 6 -2
v 3 5 -2
v 3 5 -3
v 3 7 -2
v 3 7 -3
v 3 8 -2
v 3 8 -3
v 3 10 -2
v 3 10 -3
v -3 9 3
v -3 9 1
v -3 9 -0
v -3 9 -2
v -3 10 3
v -3 10 1
v -3 10 -0
v -3 10 -1
v -3 10 -2
v -1 0 -1
v -1 0 -3
v -1 1 -1
v -1 1 -2
v -1 1 -3
v -1 2 -1
v -1 2 -2
v -1 2 -3
v -1 6 -1
v -1 6 -2
v -1 6 -3
v 1 11 -0
v 1 11 -2
v 1 12 -0
v 1 12 -2
v 2 4 4
v 2 4 3
v 2 4 2
v 2 4 -2
v 2 5 3
v 2 5 2
v 2 6 4
v 2 6 3
v 2 6 2
v 2 6 -0
v 2 6 -2
v 2 6 -3
v 2 10 -2
v 2 10 -3
v 2 11 -0
v 2 11 -2
v 2 12 1
v 2 12 -2
v 2 12 -3
v 2 13 1
v 2 13 -0
v 2 13 -1
v 2 13 -2
v 2 13 -3
v 2 14 1
v 2 14 -0
v 2 15 3
v 2 15 1
v 2 15 -0
v 2 15 -1
v 2 15 -2
v 2 15 -3
v 2 16 3
v 2 16 1
v 2 16 -3
v 2 17 1
v 2 17 -3
v 3 10 -2
v 3 10 -3
v 3 11 -2
v 3 11 -3
v 3 13 -1
v 3 13 -2
v 3 15 -1
v 3 15 -2
v 4 5 -2
v 4 5 -3
v 4 7 -2
v 4 7 -3
v 4 8 -2
v 4 8 -3
v 4 10 -2
v 4 10 -3
v 1 4 4
v 1 6 4
v 2 4 4
v 2 6 4
v -4 9 3
v -4 10 3
v -3 9 3
v -3 10 3
v -2 15 3
v -2 16 3
v 2 15 3
v 2 16 3
v 1 5 2
v 1 6 2
v 2 5 2
v 2 6 2
v -2 12 1
v -2 13 1
v -2 14 1
v -2 15 1
v -2 16 1
v -2 17 1
v -1 13 1
v -1 14 1
v 1 13 1
v 1 14 1
v 2 12 1
v 2 13 1
v 2 14 1
v 2 15 1
v 2 16 1
v 2 17 1
v -2 6 -0
v -2 11 -0
v -1 6 -0
v -1 10 -0
v -1 11 -0
v -1 12 -0
v 0 9 -0
v 0 10 -0
v 1 6 -0
v 1 9 -0
v 1 11 -0
v 1 12 -0
v 2 6 -0
v 2 11 -0
v -3 10 -1
v -3 11 -1
v -3 13 -1
v -3 15 -1
v -2 0 -1
v -2 1 -1
v -2 2 -1
v -2 6 -1
v -2 10 -1
v -2 11 -1
v -2 13 -1
v -2 15 -1
v -1 0 -1
v -1 1 -1
v -1 2 -1
v -1 6 -1
v 2 13 -1
v 2 15 -1
v 3 13 -1
v 3 15 -1
v -2 1 -2
v -2 2 -2
v -1 1 -2
v -1 2 -2
v 2 10 -2
v 2 11 -2
v 3 5 -2
v 3 7 -2
v 3 8 -2
v 3 10 -2
v 3 11 -2
v 4 5 -2
v 4 7 -2
v 4 8 -2
v 4 10 -2
v 1 5 3
v 1 6 3
v 2 5 3
v 2 6 3
v -4 9 -2
v -4 10 -2
v -3 9 -2
v -3 10 -2
v -3 11 -2
v -3 13 -2
v -3 15 -2
v -2 10 -2
v -2 11 -2
v -2 13 -2
v -2 15 -2
v -1 11 -2
v -1 12 -2
v 1 4 -2
v 1 6 -2
v 1 11 -2
v 1 12 -2
v 2 4 -2
v 2 6 -2
v 2 13 -2
v 2 15 -2
v 3 13 -2
v 3 15 -2
v -2 0 -3
v -2 1 -3
v -2 2 -3
v -2 6 -3
v -2 11 -3
v -2 12 -3
v -2 13 -3
v -2 15 -3
v -2 16 -3
v -2 17 -3
v -1 0 -3
v -1 1 -3
v -1 2 -3
v -1 6 -3
v 2 6 -3
v 2 10 -3
v 2 12 -3
v 2 13 -3
v 2 15 -3
v 2 16 -3
v 2 17 -3
v 3 5 -3
v 3 7 -3
v 3 8 -3
v 3 10 -3
v 3 11 -3
v 4 5 -3
v 4 7 -3
v 4 8 -3
v 4 10 -3
v -2 0 -1
v -1 0 -1
v -2 0 -3
v -1 0 -3
v -2 2 -1
v -1 2 -1
v -2 2 -2
v -1 2 -2
v 1 4 4
v 2 4 4
v 1 4 3
v 2 4 3
v 1 4 2
v 2 4 2
v 1 4 -2
v 2 4 -2
v 3 5 -2
v 4 5 -2
v 3 5 -3
v 4 5 -3
v -2 6 -0
v -1 6 -0
v 1 6 -0
v -2 6 -1
v -1 6 -1
v -1 6 -2
v 1 6 -2
v 2 6 -2
v -1 6 -3
v 2 6 -3
v -4 9 3
v -3 9 3
v -4 9 1
v -3 9 1
v -4 9 -0
v -3 9 -0
v -4 9 -2
v -3 9 -2
v -3 10 -1
v -2 10 -1
v -3 10 -2
v -2 10 -2
v 2 10 -2
v 3 10 -2
v 2 10 -3
v 3 10 -3
v -2 12 1
v 2 12 1
v -1 12 -0
v 1 12 -0
v -2 12 -2
v -1 12 -2
v 1 12 -2
v 2 12 -2
v -2 12 -3
v 2 12 -3
v -3 13 -1
v -2 13 -1
v 2 13 -1
v 3 13 -1
v -3 13 -2
v -2 13 -2
v 2 13 -2
v 3 13 -2
v -2 15 3
v 2 15 3
v -2 15 1
v 2 15 1
v -2 1 -1
v -1 1 -1
v -2 1 -2
v -1 1 -2
v 1 5 3
v 2 5 3
v 1 5 2
v 2 5 2
v 1 6 4
v 2 6 4
v 1 6 3
v 2 6 3
v 1 6 2
v 2 6 2
v 1 6 -0
v 2 6 -0
v -4 10 3
v -3 10 3
v -4 10 1
v -3 10 1
v -4 10 -0
v -3 10 -0
v -3 10 -1
v -4 10 -2
v -3 10 -2
v 3 10 -2
v 4 10 -2
v 3 10 -3
v 4 10 -3
v -2 11 -0
v -1 11 -0
v 1 11 -0
v 2 11 -0
v -3 11 -1
v -2 11 -1
v -3 11 -2
v -2 11 -2
v -1 11 -2
v 1 11 -2
v 2 11 -2
v 3 11 -2
v -2 11 -3
v 3 11 -3
v -3 15 -1
v -2 15 -1
v 2 15 -1
v 3 15 -1
v -3 15 -2
v -2 15 -2
v 2 15 -2
v 3 15 -2
v -2 16 3
v 2 16 3
v -2 16 1
v 2 16 1
v -2 17 1
v 2 17 1
v -2 17 -3
v 2 17 -3

# faces
f 5/4/1 2/4/1 1/4/1
f 6/6/1 3/6/1 2/6/1
f 6/4/1 2/4/1 5/4/1
f 7/5/1 4/5/1 3/5/1
f 7/6/1 3/6/1 6/6/1
f 8/5/1 4/5/1 7/5/1
f 11/5/1 10/5/1 9/5/1
f 12/5/1 10/5/1 11/5/1
f 15/3/1 14/3/1 13/3/1
f 16/3/1 14/3/1 15/3/1
f 19/2/1 18/2/1 17/2/1
f 20/2/1 18/2/1 19/2/1
f 21/2/1 18/2/1 20/2/1
f 23/8/1 21/8/1 20/8/1
f 24/8/1 21/8/1 23/8/1
f 26/9/1 23/9/1 22/9/1
f 26/9/1 24/9/1 23/9/1
f 27/9/1 24/9/1 26/9/1
f 28/5/1 26/5/1 25/5/1
f 28/5/1 27/5/1 26/5/1
f 29/5/1 27/5/1 28/5/1
f 30/5/1 28/5/1 25/5/1
f 31/5/1 28/5/1 30/5/1
f 32/5/1 27/5/1 29/5/1
f 33/5/1 27/5/1 32/5/1
f 37/7/1 35/7/1 34/7/1
f 38/7/1 35/7/1 37/7/1
f 39/7/1 35/7/1 38/7/1
f 40/4/1 36/4/1 35/4/1
f 40/7/1 35/7/1 39/7/1
f 41/4/1 36/4/1 40/4/1
f 42/3/1 38/3/1 37/3/1
f 43/7/1 39/7/1 38/7/1
f 43/3/1 38/3/1 42/3/1
f 45/4/1 43/4/1 42/4/1
f 46/7/1 39/7/1 43/7/1
f 46/4/1 43/4/1 45/4/1
f 47/7/1 39/7/1 46/7/1
f 48/8/1 41/8/1 40/8/1
f 49/8/1 41/8/1 48/8/1
f 50/6/1 47/6/1 46/6/1
f 50/6/1 45/6/1 44/6/1
f 50/6/1 49/6/1 48/6/1
f 50/6/1 48/6/1 47/6/1
f 50/6/1 46/6/1 45/6/1
f 51/6/1 49/6/1 50/6/1
f 52/6/1 49/6/1 51/6/1
f 53/5/1 52/5/1 51/5/1
f 54/5/1 52/5/1 53/5/1
f 57/1/1 56/1/1 55/1/1
f 58/1/1 56/1/1 57/1/1
f 63/2/1 60/2/1 59/2/1
f 63/8/1 61/8/1 60/8/1
f 64/9/1 62/9/1 61/9/1
f 64/8/1 61/8/1 63/8/1
f 65/2/1 63/2/1 59/2/1
f 66/2/1 63/2/1 65/2/1
f 67/9/1 62/9/1 64/9/1
f 68/9/1 62/9/1 67/9/1
f 69/9/1 62/9/1 68/9/1
f 72/4/1 71/4/1 70/4/1
f 73/4/1 71/4/1 72/4/1
f 74/6/1 73/6/1 72/6/1
f 75/6/1 73/6/1 74/6/1
f 76/5/1 75/5/1 74/5/1
f 77/5/1 75/5/1 76/5/1
f 78/4/2 79/4/2 82/4/2
f 79/6/2 80/6/2 83/6/2
f 82/4/2 79/4/2 83/4/2
f 80/5/2 81/5/2 84/5/2
f 83/6/2 80/6/2 84/6/2
f 84/5/2 81/5/2 85/5/2
f 85/5/2 81/5/2 86/5/2
f 87/2/2 88/2/2 89/2/2
f 89/2/2 88/2/2 90/2/2
f 90/2/2 88/2/2 91/2/2
f 90/8/2 91/8/2 93/8/2
f 93/8/2 91/8/2 94/8/2
f 92/9/2 93/9/2 95/9/2
f 93/9/2 94/9/2 95/9/2
f 95/9/2 94/9/2 96/9/2
f 96/9/2 94/9/2 97/9/2
f 98/1/2 99/1/2 100/1/2
f 100/1/2 99/1/2 101/1/2
f 102/2/2 103/2/2 106/2/2
f 103/8/2 104/8/2 106/8/2
f 104/9/2 105/9/2 107/9/2
f 106/8/2 104/8/2 107/8/2
f 102/2/2 106/2/2 108/2/2
f 108/2/2 106/2/2 109/2/2
f 107/9/2 105/9/2 110/9/2
f 110/9/2 105/9/2 111/9/2
f 111/9/2 105/9/2 112/9/2
f 112/5/2 113/5/2 114/5/2
f 111/5/2 112/5/2 114/5/2
f 114/5/2 113/5/2 115/5/2
f 111/5/2 114/5/2 116/5/2
f 116/5/2 114/5/2 117/5/2
f 118/7/2 119/7/2 121/7/2
f 121/7/2 119/7/2 122/7/2
f 122/7/2 119/7/2 123/7/2
f 119/4/2 120/4/2 124/4/2
f 123/7/2 119/7/2 124/7/2
f 124/4/2 120/4/2 125/4/2
f 121/3/2 122/3/2 126/3/2
f 122/7/2 123/7/2 127/7/2
f 126/3/2 122/3/2 127/3/2
f 126/4/2 127/4/2 129/4/2
f 127/7/2 123/7/2 130/7/2
f 129/4/2 127/4/2 130/4/2
f 130/7/2 123/7/2 131/7/2
f 124/8/2 125/8/2 132/8/2
f 132/8/2 125/8/2 133/8/2
f 130/6/2 131/6/2 134/6/2
f 128/6/2 129/6/2 134/6/2
f 132/6/2 133/6/2 134/6/2
f 131/6/2 132/6/2 134/6/2
f 129/6/2 130/6/2 134/6/2
f 134/6/2 133/6/2 135/6/2
f 135/6/2 133/6/2 136/6/2
f 135/5/2 136/5/2 137/5/2
f 137/5/2 136/5/2 138/5/2
f 139/5/2 140/5/2 141/5/2
f 141/5/2 140/5/2 142/5/2
f 143/3/2 144/3/2 145/3/2
f 145/3/2 144/3/2 146/3/2
f 147/4/2 148/4/2 149/4/2
f 149/4/2 148/4/2 150/4/2
f 149/6/2 150/6/2 151/6/2
f 151/6/2 150/6/2 152/6/2
f 151/5/2 152/5/2 153/5/2
f 153/5/2 152/5/2 154/5/2
f 157/2/3 156/2/3 155/2/3
f 158/2/3 156/2/3 157/2/3
f 161/4/3 160/4/3 159/4/3
f 162/4/3 160/4/3 161/4/3
f 165/6/3 164/6/3 163/6/3
f 166/6/3 164/6/3 165/6/3
f 169/9/3 168/9/3 167/9/3
f 170/9/3 168/9/3 169/9/3
f 177/7/3 172/7/3 171/7/3
f 177/3/3 173/3/3 172/3/3
f 178/4/3 174/4/3 173/4/3
f 178/3/3 173/3/3 177/3/3
f 179/7/3 177/7/3 171/7/3
f 179/4/3 178/4/3 177/4/3
f 180/4/3 174/4/3 178/4/3
f 180/4/3 178/4/3 179/4/3
f 181/7/3 179/7/3 171/7/3
f 182/3/3 180/3/3 179/3/3
f 182/7/3 179/7/3 181/7/3
f 183/4/3 174/4/3 180/4/3
f 183/3/3 180/3/3 182/3/3
f 184/4/3 174/4/3 183/4/3
f 185/5/3 176/5/3 175/5/3
f 186/5/3 176/5/3 185/5/3
f 189/5/3 188/5/3 187/5/3
f 190/5/3 188/5/3 189/5/3
f 191/5/3 188/5/3 190/5/3
f 193/6/3 190/6/3 189/6/3
f 194/1/3 192/1/3 191/1/3
f 194/6/3 190/6/3 193/6/3
f 194/1/3 191/1/3 190/1/3
f 195/6/3 193/6/3 189/6/3
f 196/1/3 194/1/3 193/1/3
f 196/6/3 193/6/3 195/6/3
f 197/1/3 192/1/3 194/1/3
f 197/1/3 194/1/3 196/1/3
f 198/1/3 192/1/3 197/1/3
f 199/5/3 196/5/3 195/5/3
f 199/5/3 197/5/3 196/5/3
f 200/5/3 197/5/3 199/5/3
f 209/5/3 202/5/3 201/5/3
f 210/5/3 202/5/3 209/5/3
f 211/3/3 204/3/3 203/3/3
f 212/3/3 204/3/3 211/3/3
f 213/2/3 206/2/3 205/2/3
f 214/2/3 206/2/3 213/2/3
f 215/9/3 208/9/3 207/9/3
f 216/9/3 208/9/3 215/9/3
f 219/3/3 218/3/3 217/3/3
f 220/3/3 218/3/3 219/3/3
f 223/8/3 222/8/3 221/8/3
f 224/8/3 222/8/3 223/8/3
f 230/5/3 226/5/3 225/5/3
f 231/5/3 226/5/3 230/5/3
f 232/4/3 228/4/3 227/4/3
f 233/6/3 229/6/3 228/6/3
f 233/4/3 228/4/3 232/4/3
f 234/5/3 230/5/3 229/5/3
f 234/6/3 229/6/3 233/6/3
f 235/5/3 230/5/3 234/5/3
f 236/2/4 237/2/4 238/2/4
f 238/2/4 237/2/4 239/2/4
f 240/5/4 241/5/4 242/5/4
f 242/5/4 241/5/4 243/5/4
f 243/5/4 244/5/4 247/5/4
f 247/5/4 244/5/4 248/5/4
f 245/3/4 246/3/4 249/3/4
f 249/3/4 246/3/4 250/3/4
f 251/1/4 252/1/4 255/1/4
f 255/1/4 252/1/4 256/1/4
f 253/9/4 254/9/4 257/9/4
f 257/9/4 254/9/4 258/9/4
f 259/3/4 260/3/4 261/3/4
f 261/3/4 260/3/4 262/3/4
f 263/2/4 264/2/4 273/2/4
f 264/8/4 265/8/4 274/8/4
f 273/2/4 264/2/4 274/2/4
f 265/9/4 266/9/4 275/9/4
f 274/8/4 265/8/4 275/8/4
f 266/5/4 267/5/4 276/5/4
f 275/9/4 266/9/4 276/9/4
f 276/5/4 267/5/4 277/5/4
f 277/5/4 267/5/4 278/5/4
f 268/4/4 269/4/4 279/4/4
f 269/8/4 270/8/4 280/8/4
f 279/4/4 269/4/4 280/4/4
f 270/6/4 271/6/4 281/6/4
f 280/8/4 270/8/4 281/8/4
f 271/5/4 272/5/4 282/5/4
f 281/6/4 271/6/4 282/6/4
f 282/5/4 272/5/4 283/5/4
f 278/5/4 267/5/4 287/5/4
f 287/5/4 267/5/4 288/5/4
f 284/4/4 285/4/4 289/4/4
f 285/6/4 286/6/4 290/6/4
f 289/4/4 285/4/4 290/4/4
f 286/5/4 287/5/4 291/5/4
f 290/6/4 286/6/4 291/6/4
f 291/5/4 287/5/4 292/5/4
f 295/2/5 294/2/5 293/2/5
f 296/2/5 294/2/5 295/2/5
f 299/9/5 298/9/5 297/9/5
f 300/9/5 298/9/5 299/9/5
f 303/2/5 302/2/5 301/2/5
f 304/2/5 302/2/5 303/2/5
f 305/8/5 304/8/5 303/8/5
f 306/8/5 304/8/5 305/8/5
f 307/9/5 306/9/5 305/9/5
f 308/9/5 306/9/5 307/9/5
f 311/4/5 310/4/5 309/4/5
f 312/4/5 310/4/5 311/4/5
f 316/5/5 314/5/5 313/5/5
f 317/6/5 315/6/5 314/6/5
f 317/5/5 314/5/5 316/5/5
f 318/6/5 315/6/5 317/6/5
f 319/6/5 315/6/5 318/6/5
f 321/5/5 319/5/5 318/5/5
f 321/5/5 320/5/5 319/5/5
f 322/5/5 320/5/5 321/5/5
f 325/4/5 324/4/5 323/4/5
f 326/4/5 324/4/5 325/4/5
f 327/6/5 326/6/5 325/6/5
f 328/6/5 326/6/5 327/6/5
f 329/5/5 328/5/5 327/5/5
f 330/5/5 328/5/5 329/5/5
f 333/5/5 332/5/5 331/5/5
f 334/5/5 332/5/5 333/5/5
f 337/5/5 336/5/5 335/5/5
f 338/5/5 336/5/5 337/5/5
f 341/7/5 340/7/5 339/7/5
f 342/7/5 340/7/5 341/7/5
f 343/7/5 341/7/5 339/7/5
f 344/7/5 341/7/5 343/7/5
f 345/7/5 340/7/5 342/7/5
f 346/7/5 340/7/5 345/7/5
f 347/4/5 344/4/5 343/4/5
f 347/4/5 345/4/5 344/4/5
f 347/4/5 346/4/5 345/4/5
f 348/4/5 346/4/5 347/4/5
f 353/3/5 350/3/5 349/3/5
f 354/3/5 350/3/5 353/3/5
f 355/3/5 352/3/5 351/3/5
f 356/3/5 352/3/5 355/3/5
f 359/6/5 358/6/5 357/6/5
f 360/6/5 358/6/5 359/6/5
f 361/2/6 362/2/6 363/2/6
f 363/2/6 362/2/6 364/2/6
f 365/8/6 366/8/6 367/8/6
f 367/8/6 366/8/6 368/8/6
f 369/2/6 370/2/6 371/2/6
f 371/2/6 370/2/6 372/2/6
f 373/9/6 374/9/6 375/9/6
f 375/9/6 374/9/6 376/9/6
f 377/4/6 378/4/6 379/4/6
f 379/4/6 378/4/6 380/4/6
f 379/6/6 380/6/6 381/6/6
f 381/6/6 380/6/6 382/6/6
f 381/5/6 382/5/6 383/5/6
f 381/5/6 383/5/6 384/5/6
f 384/5/6 383/5/6 385/5/6
f 386/5/6 387/5/6 388/5/6
f 388/5/6 387/5/6 389/5/6
f 390/5/6 391/5/6 395/5/6
f 394/5/6 395/5/6 396/5/6
f 395/5/6 391/5/6 397/5/6
f 396/5/6 395/5/6 397/5/6
f 397/5/6 391/5/6 398/5/6
f 392/5/6 393/5/6 399/5/6
f 399/5/6 393/5/6 400/5/6
f 397/5/6 398/5/6 402/5/6
f 400/5/6 401/5/6 402/5/6
f 399/5/6 400/5/6 402/5/6
f 398/5/6 399/5/6 402/5/6
f 402/5/6 401/5/6 403/5/6
f 404/3/6 405/3/6 408/3/6
f 408/3/6 405/3/6 409/3/6
f 406/3/6 407/3/6 410/3/6
f 410/3/6 407/3/6 411/3/6
f 412/6/6 413/6/6 414/6/6
f 414/6/6 413/6/6 415/6/6
f 416/5/6 417/5/6 418/5/6
f 418/5/6 417/5/6 419/5/6
