# MagicaVoxel @ Ephtracy

# group
g Snow_Environment_Deco_Tile_02-0

# material
mtllib Snow_Environment_Deco_Tile_02-0.mtl
usemtl palette

# normals
vn -1 0 0
vn 1 0 0
vn 0 0 1
vn 0 0 -1
vn 0 -1 0
vn 0 1 0

# texcoords
vt 0.970703 0.5
vt 0.974609 0.5
vt 0.978516 0.5
vt 0.982422 0.5

# verts
v -63 0 63
v -63 0 -63
v -63 1 63
v -63 1 -63
v -63 2 63
v -63 2 -63
v -63 3 63
v -63 3 -63
v -63 5 63
v -63 5 -63
v 63 0 63
v 63 0 -63
v 63 1 63
v 63 1 -63
v 63 2 63
v 63 2 -63
v 63 3 63
v 63 3 -63
v 63 5 63
v 63 5 -63
v -63 0 63
v -63 1 63
v -63 2 63
v -63 3 63
v -63 5 63
v 63 0 63
v 63 1 63
v 63 2 63
v 63 3 63
v 63 5 63
v -63 0 -63
v -63 1 -63
v -63 2 -63
v -63 3 -63
v -63 5 -63
v 63 0 -63
v 63 1 -63
v 63 2 -63
v 63 3 -63
v 63 5 -63
v -63 0 63
v 63 0 63
v -63 0 -63
v 63 0 -63
v -63 5 63
v 63 5 63
v -63 5 -63
v 63 5 -63

# faces
f 3/2/1 2/2/1 1/2/1
f 4/2/1 2/2/1 3/2/1
f 5/3/1 4/3/1 3/3/1
f 6/3/1 4/3/1 5/3/1
f 7/4/1 6/4/1 5/4/1
f 8/4/1 6/4/1 7/4/1
f 9/1/1 8/1/1 7/1/1
f 10/1/1 8/1/1 9/1/1
f 11/2/2 12/2/2 13/2/2
f 13/2/2 12/2/2 14/2/2
f 13/3/2 14/3/2 15/3/2
f 15/3/2 14/3/2 16/3/2
f 15/4/2 16/4/2 17/4/2
f 17/4/2 16/4/2 18/4/2
f 17/1/2 18/1/2 19/1/2
f 19/1/2 18/1/2 20/1/2
f 26/2/3 22/2/3 21/2/3
f 27/3/3 23/3/3 22/3/3
f 27/2/3 22/2/3 26/2/3
f 28/4/3 24/4/3 23/4/3
f 28/3/3 23/3/3 27/3/3
f 29/1/3 25/1/3 24/1/3
f 29/4/3 24/4/3 28/4/3
f 30/1/3 25/1/3 29/1/3
f 31/2/4 32/2/4 36/2/4
f 32/3/4 33/3/4 37/3/4
f 36/2/4 32/2/4 37/2/4
f 33/4/4 34/4/4 38/4/4
f 37/3/4 33/3/4 38/3/4
f 34/1/4 35/1/4 39/1/4
f 38/4/4 34/4/4 39/4/4
f 39/1/4 35/1/4 40/1/4
f 43/2/5 42/2/5 41/2/5
f 44/2/5 42/2/5 43/2/5
f 45/1/6 46/1/6 47/1/6
f 47/1/6 46/1/6 48/1/6
